<svg width="50" height="27" viewBox="0 0 50 27" fill="none" xmlns="http://www.w3.org/2000/svg">
<path fill-rule="evenodd" clip-rule="evenodd" d="M4.93562 1.01239C2.57511 1.01239 0 3.37291 0 5.73342V26.5489H4.93562V16.8922H9.65665V26.5489H14.3777V5.73342C14.3777 3.37291 12.0172 1.01239 9.44206 1.01239H4.93562ZM4.93562 11.9566V5.51883H9.65665V11.9566H4.93562Z" fill="#5C85DE"/>
<path fill-rule="evenodd" clip-rule="evenodd" d="M22.7467 0.797791C20.1716 0.797791 17.8111 3.15831 17.8111 5.51882V26.5489H22.5322V16.8922H27.2532C29.6137 16.8922 32.1888 14.5317 32.1888 12.1712V5.73341C32.1888 3.3729 29.8283 1.01238 27.2532 1.01238H22.7467V0.797791ZM22.5322 11.9566V5.51882H27.2532V11.9566H22.5322Z" fill="#5C85DE"/>
<path fill-rule="evenodd" clip-rule="evenodd" d="M40.3434 5.73342V21.8278H35.4077V26.5489H50V21.8278H45.279V5.73342H50V1.01239H35.4077V5.73342H40.3434Z" fill="#5C85DE"/>
<path fill-rule="evenodd" clip-rule="evenodd" d="M4.93559 16.8922V11.9566H8.15448L4.93559 16.8922Z" fill="#3367D6"/>
<path fill-rule="evenodd" clip-rule="evenodd" d="M22.5322 16.8922V11.9566H25.3219L22.5322 16.8922Z" fill="#3367D6"/>
<path fill-rule="evenodd" clip-rule="evenodd" d="M40.3433 8.9523V5.73341H45.2789L40.3433 8.9523Z" fill="#3367D6"/>
</svg>
