<svg width="50" height="57" viewBox="0 0 50 57" fill="none" xmlns="http://www.w3.org/2000/svg">
<path d="M43.7929 11.0709C43.7536 10.7849 43.5033 10.6269 43.2963 10.6095C43.0899 10.5922 38.7195 10.2683 38.7195 10.2683C38.7195 10.2683 35.6842 7.25496 35.3512 6.92151C35.0178 6.58807 34.3668 6.68947 34.1143 6.76393C34.0768 6.77489 33.451 6.9681 32.4155 7.2883C31.4015 4.37088 29.6123 1.68961 26.4642 1.68961C26.3774 1.68961 26.2879 1.69327 26.1983 1.69829C25.3031 0.514329 24.194 0 23.2362 0C15.9031 0 12.3996 9.16702 11.3011 13.8257C8.45171 14.7086 6.42728 15.3362 6.16875 15.4175C4.57826 15.9163 4.52801 15.9666 4.31927 17.4653C4.16168 18.5999 0 50.7843 0 50.7843L32.4288 56.8603L50 53.059C50 53.059 43.8317 11.3568 43.7929 11.0709ZM30.6231 7.84283C29.8087 8.09497 28.8828 8.38137 27.8793 8.69197C27.8802 8.49876 27.8811 8.30828 27.8811 8.10045C27.8811 6.28705 27.6294 4.8272 27.2256 3.66973C28.8476 3.87345 29.9279 5.71883 30.6231 7.84283ZM25.2135 4.02921C25.6644 5.15928 25.9576 6.78083 25.9576 8.96924C25.9576 9.08115 25.9567 9.18346 25.9558 9.28715C24.1712 9.83985 22.2322 10.4401 20.2886 11.0421C21.3798 6.83062 23.4253 4.7966 25.2135 4.02921ZM23.0347 1.96687C23.3513 1.96687 23.6701 2.07422 23.9752 2.28433C21.6251 3.39019 19.106 6.1756 18.0422 11.7378C16.4873 12.2192 14.9676 12.6897 13.5626 13.125C14.8086 8.88245 17.7676 1.96687 23.0347 1.96687Z" fill="#95BF46"/>
<path d="M43.2964 10.6095C43.0899 10.5922 38.7195 10.2683 38.7195 10.2683C38.7195 10.2683 35.6842 7.25498 35.3512 6.92153C35.2265 6.79729 35.0584 6.7338 34.8826 6.70639L32.4306 56.8598L50 53.059C50 53.059 43.8317 11.3568 43.7929 11.0709C43.7536 10.7849 43.5033 10.6269 43.2964 10.6095Z" fill="#5E8E3E"/>
<path d="M26.4642 20.3183L24.2977 26.7629C24.2977 26.7629 22.3993 25.7498 20.0725 25.7498C16.6613 25.7498 16.4896 27.8907 16.4896 28.4301C16.4896 31.3736 24.1625 32.5014 24.1625 39.3959C24.1625 44.8201 20.7221 48.3131 16.083 48.3131C10.5163 48.3131 7.66971 44.8485 7.66971 44.8485L9.16017 39.924C9.16017 39.924 12.0863 42.4362 14.5556 42.4362C16.1689 42.4362 16.8253 41.1659 16.8253 40.2378C16.8253 36.3981 10.5305 36.2268 10.5305 29.9178C10.5305 24.6078 14.3418 19.4691 22.0353 19.4691C24.9998 19.4691 26.4642 20.3183 26.4642 20.3183Z" fill="white"/>
</svg>
