<svg width="648" height="580" viewBox="0 0 648 580" fill="none" xmlns="http://www.w3.org/2000/svg">
<path d="M266.5 152.385C291.105 152.385 311.133 132.422 311.133 107.863C311.133 83.3033 291.105 63.3406 266.5 63.3406C241.771 63.3406 221.631 83.2931 221.631 107.863C221.631 132.433 241.771 152.385 266.5 152.385ZM266.5 81.2099C280.991 81.2099 293.263 93.4458 293.263 107.863C293.263 122.551 281.262 134.516 266.5 134.516C251.596 134.516 239.5 122.535 239.5 107.863C239.5 93.1905 251.596 81.2099 266.5 81.2099Z" fill="#0D2173" stroke="#0D2173" stroke-width="4"/>
<path d="M380.689 152.385C405.418 152.385 425.558 132.433 425.558 107.863C425.558 83.2931 405.418 63.3406 380.689 63.3406C355.959 63.3406 335.819 83.2931 335.819 107.863C335.819 132.433 355.959 152.385 380.689 152.385ZM380.689 81.2099C395.593 81.2099 407.689 93.1905 407.689 107.863C407.689 122.535 395.593 134.516 380.689 134.516C365.784 134.516 353.689 122.535 353.689 107.863C353.689 93.1905 365.784 81.2099 380.689 81.2099Z" fill="#0D2173" stroke="#0D2173" stroke-width="4"/>
<mask id="path-3-outside-1_327_355" maskUnits="userSpaceOnUse" x="0" y="0" width="648" height="580" fill="black">
<rect fill="white" width="648" height="580"/>
<path d="M601.344 508.74V268.706C601.344 234.872 574.921 207.121 541.54 204.653C534.373 187.39 518.247 174.726 498.929 172.324C496.376 92.7511 439.64 26.6228 364.017 8.857C363.049 8.3442 361.996 7.97959 360.825 7.97959C360.776 7.97959 360.735 8.00657 360.686 8.00763C348.679 5.43466 336.25 4 323.476 4C310.738 4 298.342 5.42302 286.367 7.9817L286.356 7.97959C285.245 7.97959 284.235 8.29816 283.304 8.7628C207.496 26.3989 150.581 92.6204 148.023 172.323C128.696 174.725 112.564 187.395 105.4 204.664C72.0012 207.242 45.6078 234.949 45.6078 268.706V508.766C21.4207 517.19 4 540.072 4 566.984V568.153C4 571.984 7.10746 575.088 10.9346 575.088H42.6104C46.4376 575.088 49.5451 571.519 49.5451 567.687C49.5451 558.602 56.937 551.206 66.0138 551.206C75.3785 551.206 82.7196 558.445 82.7196 568.153C82.7196 571.984 85.8271 575.088 89.6542 575.088H121.339C125.166 575.088 128.273 571.984 128.273 568.153V566.984C128.273 540.134 110.862 517.297 86.6653 508.826V268.706C86.6653 257.248 94.8515 247.662 105.698 245.453C112.974 262.266 128.812 274.561 147.739 277.017V341.753C147.739 415.625 194.587 480.753 264.764 505.569V507.985V533.268C264.764 535.237 264.79 537.205 265.069 539.178C265.073 539.203 265.089 539.224 265.093 539.25C268.011 559.688 285.968 575.088 306.923 575.088H340.021C361.003 575.088 379.004 559.639 381.883 539.153C381.887 539.121 381.872 539.092 381.876 539.061C381.881 539.026 381.903 538.997 381.908 538.962C382.179 537.061 382.416 535.165 382.416 533.268V507.985V505.568C452.458 480.79 499.213 415.663 499.213 341.753V277.016C518.138 274.559 533.977 262.261 541.25 245.444C552.067 247.623 560.515 257.381 560.515 268.706V508.74C536.195 517.143 518.671 540.046 518.671 566.984V568.153C518.671 571.984 521.778 575.088 525.605 575.088H557.289C561.117 575.088 564.224 571.519 564.224 567.687C564.224 558.602 571.718 551.206 580.93 551.206C590.142 551.206 597.636 558.602 597.636 568.153C597.636 571.984 600.743 575.088 604.57 575.088H636.255C640.082 575.088 643.189 571.984 643.189 568.153V566.984C643.189 540.046 625.665 517.143 601.344 508.74ZM353.89 20.7984V22.6405C353.89 39.0839 340.25 52.462 323.476 52.462C306.83 52.462 293.29 39.0839 293.29 22.6405V20.7635C303.083 18.9282 313.152 17.8693 323.476 17.8693C333.88 17.8693 344.027 18.9356 353.89 20.7984ZM279.561 24.0133C280.312 47.4595 299.658 66.3313 323.476 66.3313C347.399 66.3313 366.829 47.4881 367.613 24.0699C433.281 42.5163 481.93 100.92 484.988 170.931H161.964C165.026 100.843 213.781 42.3908 279.561 24.0133ZM278.634 215.003H368.547V231.336H278.634V215.003ZM368.547 201.133H278.634V184.8H368.547V201.133ZM114.057 561.218H95.8946C92.8972 547.578 80.6367 537.336 66.0138 537.336C51.6111 537.336 39.5199 547.429 36.4379 561.218H18.2164C21.0953 537.54 41.4335 519.132 66.0138 519.132C90.7211 519.132 111.161 537.54 114.057 561.218ZM72.796 268.706V505.646C70.566 505.406 68.3074 505.263 66.0138 505.263C63.8054 505.263 61.6267 505.388 59.4771 505.613V268.706C59.4771 243.859 77.762 223.204 101.708 219.078C101.51 220.923 101.398 222.793 101.398 224.689C101.398 227.227 101.642 229.703 101.992 232.146C85.3047 236.005 72.796 250.889 72.796 268.706ZM115.268 224.689C115.268 205.549 129.306 189.588 147.739 186.341V263.041C129.306 259.79 115.268 243.829 115.268 224.689ZM368.547 484.717V500.724V501.05H278.634V500.724V484.717H368.547ZM278.634 514.92H368.547V531.253H278.634V514.92ZM281.4 470.848C285.932 461.368 295.628 454.747 306.923 454.747H340.021C351.414 454.747 361.19 461.368 365.758 470.848H281.4ZM340.021 561.218H306.923C295.695 561.218 285.746 554.686 281.182 545.122H365.761C361.197 554.686 351.249 561.218 340.021 561.218ZM382.416 490.911V482.698C382.416 480.797 382.171 478.892 381.883 476.826C381.868 476.718 381.803 476.632 381.784 476.526C378.729 456.405 361.256 440.878 340.021 440.878H306.923C286.148 440.878 268.946 455.886 265.495 475.526C265.347 475.946 264.764 480.729 264.764 482.698V490.915C233.606 478.859 207.75 458.035 189.711 431.901C195.39 363.304 253.736 309.823 323.476 309.823C393.475 309.823 451.847 363.359 457.26 432.001C439.266 458.1 413.483 478.885 382.416 490.911ZM468.452 413.023C454.59 346.01 394.501 295.953 323.476 295.953C252.669 295.953 192.588 346.008 178.554 413.021C167.658 391.377 161.609 367.128 161.609 341.753V297.101H243.639V283.231H161.609V270.581V264.362H218.991V250.493H161.609V231.624H198.729V217.755H161.609V184.8H264.764V208.068V233.355C264.764 235.324 264.79 237.293 265.069 239.265C265.569 242.674 268.49 245.205 271.936 245.205H375.016C378.479 245.205 381.434 242.487 381.908 239.062C382.171 237.161 382.416 235.256 382.416 233.355V208.068V184.8H485.344V198.598H406.768V212.467H485.344V231.336H431.416V245.205H485.344V264.074H451.67V277.944H485.344V341.753C485.344 367.134 479.313 391.383 468.452 413.023ZM499.213 263.041V186.341C517.638 189.593 531.676 205.549 531.676 224.689C531.676 243.829 517.638 259.79 499.213 263.041ZM544.963 232.073C545.306 229.654 545.545 227.201 545.545 224.689C545.545 222.782 545.431 220.902 545.231 219.046C569.171 223.087 587.475 243.786 587.475 268.706V505.61C585.323 505.387 583.141 505.263 580.93 505.263C578.719 505.263 576.537 505.387 574.385 505.61V268.706C574.385 250.804 561.77 235.843 544.963 232.073ZM610.811 561.218C607.813 547.578 595.553 537.336 580.93 537.336C566.417 537.336 554.224 547.429 551.117 561.218H532.887C535.783 537.54 556.223 519.132 580.93 519.132C605.637 519.132 626.077 537.54 628.973 561.218H610.811Z"/>
</mask>
<path d="M601.344 508.74V268.706C601.344 234.872 574.921 207.121 541.54 204.653C534.373 187.39 518.247 174.726 498.929 172.324C496.376 92.7511 439.64 26.6228 364.017 8.857C363.049 8.3442 361.996 7.97959 360.825 7.97959C360.776 7.97959 360.735 8.00657 360.686 8.00763C348.679 5.43466 336.25 4 323.476 4C310.738 4 298.342 5.42302 286.367 7.9817L286.356 7.97959C285.245 7.97959 284.235 8.29816 283.304 8.7628C207.496 26.3989 150.581 92.6204 148.023 172.323C128.696 174.725 112.564 187.395 105.4 204.664C72.0012 207.242 45.6078 234.949 45.6078 268.706V508.766C21.4207 517.19 4 540.072 4 566.984V568.153C4 571.984 7.10746 575.088 10.9346 575.088H42.6104C46.4376 575.088 49.5451 571.519 49.5451 567.687C49.5451 558.602 56.937 551.206 66.0138 551.206C75.3785 551.206 82.7196 558.445 82.7196 568.153C82.7196 571.984 85.8271 575.088 89.6542 575.088H121.339C125.166 575.088 128.273 571.984 128.273 568.153V566.984C128.273 540.134 110.862 517.297 86.6653 508.826V268.706C86.6653 257.248 94.8515 247.662 105.698 245.453C112.974 262.266 128.812 274.561 147.739 277.017V341.753C147.739 415.625 194.587 480.753 264.764 505.569V507.985V533.268C264.764 535.237 264.79 537.205 265.069 539.178C265.073 539.203 265.089 539.224 265.093 539.25C268.011 559.688 285.968 575.088 306.923 575.088H340.021C361.003 575.088 379.004 559.639 381.883 539.153C381.887 539.121 381.872 539.092 381.876 539.061C381.881 539.026 381.903 538.997 381.908 538.962C382.179 537.061 382.416 535.165 382.416 533.268V507.985V505.568C452.458 480.79 499.213 415.663 499.213 341.753V277.016C518.138 274.559 533.977 262.261 541.25 245.444C552.067 247.623 560.515 257.381 560.515 268.706V508.74C536.195 517.143 518.671 540.046 518.671 566.984V568.153C518.671 571.984 521.778 575.088 525.605 575.088H557.289C561.117 575.088 564.224 571.519 564.224 567.687C564.224 558.602 571.718 551.206 580.93 551.206C590.142 551.206 597.636 558.602 597.636 568.153C597.636 571.984 600.743 575.088 604.57 575.088H636.255C640.082 575.088 643.189 571.984 643.189 568.153V566.984C643.189 540.046 625.665 517.143 601.344 508.74ZM353.89 20.7984V22.6405C353.89 39.0839 340.25 52.462 323.476 52.462C306.83 52.462 293.29 39.0839 293.29 22.6405V20.7635C303.083 18.9282 313.152 17.8693 323.476 17.8693C333.88 17.8693 344.027 18.9356 353.89 20.7984ZM279.561 24.0133C280.312 47.4595 299.658 66.3313 323.476 66.3313C347.399 66.3313 366.829 47.4881 367.613 24.0699C433.281 42.5163 481.93 100.92 484.988 170.931H161.964C165.026 100.843 213.781 42.3908 279.561 24.0133ZM278.634 215.003H368.547V231.336H278.634V215.003ZM368.547 201.133H278.634V184.8H368.547V201.133ZM114.057 561.218H95.8946C92.8972 547.578 80.6367 537.336 66.0138 537.336C51.6111 537.336 39.5199 547.429 36.4379 561.218H18.2164C21.0953 537.54 41.4335 519.132 66.0138 519.132C90.7211 519.132 111.161 537.54 114.057 561.218ZM72.796 268.706V505.646C70.566 505.406 68.3074 505.263 66.0138 505.263C63.8054 505.263 61.6267 505.388 59.4771 505.613V268.706C59.4771 243.859 77.762 223.204 101.708 219.078C101.51 220.923 101.398 222.793 101.398 224.689C101.398 227.227 101.642 229.703 101.992 232.146C85.3047 236.005 72.796 250.889 72.796 268.706ZM115.268 224.689C115.268 205.549 129.306 189.588 147.739 186.341V263.041C129.306 259.79 115.268 243.829 115.268 224.689ZM368.547 484.717V500.724V501.05H278.634V500.724V484.717H368.547ZM278.634 514.92H368.547V531.253H278.634V514.92ZM281.4 470.848C285.932 461.368 295.628 454.747 306.923 454.747H340.021C351.414 454.747 361.19 461.368 365.758 470.848H281.4ZM340.021 561.218H306.923C295.695 561.218 285.746 554.686 281.182 545.122H365.761C361.197 554.686 351.249 561.218 340.021 561.218ZM382.416 490.911V482.698C382.416 480.797 382.171 478.892 381.883 476.826C381.868 476.718 381.803 476.632 381.784 476.526C378.729 456.405 361.256 440.878 340.021 440.878H306.923C286.148 440.878 268.946 455.886 265.495 475.526C265.347 475.946 264.764 480.729 264.764 482.698V490.915C233.606 478.859 207.75 458.035 189.711 431.901C195.39 363.304 253.736 309.823 323.476 309.823C393.475 309.823 451.847 363.359 457.26 432.001C439.266 458.1 413.483 478.885 382.416 490.911ZM468.452 413.023C454.59 346.01 394.501 295.953 323.476 295.953C252.669 295.953 192.588 346.008 178.554 413.021C167.658 391.377 161.609 367.128 161.609 341.753V297.101H243.639V283.231H161.609V270.581V264.362H218.991V250.493H161.609V231.624H198.729V217.755H161.609V184.8H264.764V208.068V233.355C264.764 235.324 264.79 237.293 265.069 239.265C265.569 242.674 268.49 245.205 271.936 245.205H375.016C378.479 245.205 381.434 242.487 381.908 239.062C382.171 237.161 382.416 235.256 382.416 233.355V208.068V184.8H485.344V198.598H406.768V212.467H485.344V231.336H431.416V245.205H485.344V264.074H451.67V277.944H485.344V341.753C485.344 367.134 479.313 391.383 468.452 413.023ZM499.213 263.041V186.341C517.638 189.593 531.676 205.549 531.676 224.689C531.676 243.829 517.638 259.79 499.213 263.041ZM544.963 232.073C545.306 229.654 545.545 227.201 545.545 224.689C545.545 222.782 545.431 220.902 545.231 219.046C569.171 223.087 587.475 243.786 587.475 268.706V505.61C585.323 505.387 583.141 505.263 580.93 505.263C578.719 505.263 576.537 505.387 574.385 505.61V268.706C574.385 250.804 561.77 235.843 544.963 232.073ZM610.811 561.218C607.813 547.578 595.553 537.336 580.93 537.336C566.417 537.336 554.224 547.429 551.117 561.218H532.887C535.783 537.54 556.223 519.132 580.93 519.132C605.637 519.132 626.077 537.54 628.973 561.218H610.811Z" fill="#0D2173"/>
<path d="M601.344 508.74V268.706C601.344 234.872 574.921 207.121 541.54 204.653C534.373 187.39 518.247 174.726 498.929 172.324C496.376 92.7511 439.64 26.6228 364.017 8.857C363.049 8.3442 361.996 7.97959 360.825 7.97959C360.776 7.97959 360.735 8.00657 360.686 8.00763C348.679 5.43466 336.25 4 323.476 4C310.738 4 298.342 5.42302 286.367 7.9817L286.356 7.97959C285.245 7.97959 284.235 8.29816 283.304 8.7628C207.496 26.3989 150.581 92.6204 148.023 172.323C128.696 174.725 112.564 187.395 105.4 204.664C72.0012 207.242 45.6078 234.949 45.6078 268.706V508.766C21.4207 517.19 4 540.072 4 566.984V568.153C4 571.984 7.10746 575.088 10.9346 575.088H42.6104C46.4376 575.088 49.5451 571.519 49.5451 567.687C49.5451 558.602 56.937 551.206 66.0138 551.206C75.3785 551.206 82.7196 558.445 82.7196 568.153C82.7196 571.984 85.8271 575.088 89.6542 575.088H121.339C125.166 575.088 128.273 571.984 128.273 568.153V566.984C128.273 540.134 110.862 517.297 86.6653 508.826V268.706C86.6653 257.248 94.8515 247.662 105.698 245.453C112.974 262.266 128.812 274.561 147.739 277.017V341.753C147.739 415.625 194.587 480.753 264.764 505.569V507.985V533.268C264.764 535.237 264.79 537.205 265.069 539.178C265.073 539.203 265.089 539.224 265.093 539.25C268.011 559.688 285.968 575.088 306.923 575.088H340.021C361.003 575.088 379.004 559.639 381.883 539.153C381.887 539.121 381.872 539.092 381.876 539.061C381.881 539.026 381.903 538.997 381.908 538.962C382.179 537.061 382.416 535.165 382.416 533.268V507.985V505.568C452.458 480.79 499.213 415.663 499.213 341.753V277.016C518.138 274.559 533.977 262.261 541.25 245.444C552.067 247.623 560.515 257.381 560.515 268.706V508.74C536.195 517.143 518.671 540.046 518.671 566.984V568.153C518.671 571.984 521.778 575.088 525.605 575.088H557.289C561.117 575.088 564.224 571.519 564.224 567.687C564.224 558.602 571.718 551.206 580.93 551.206C590.142 551.206 597.636 558.602 597.636 568.153C597.636 571.984 600.743 575.088 604.57 575.088H636.255C640.082 575.088 643.189 571.984 643.189 568.153V566.984C643.189 540.046 625.665 517.143 601.344 508.74ZM353.89 20.7984V22.6405C353.89 39.0839 340.25 52.462 323.476 52.462C306.83 52.462 293.29 39.0839 293.29 22.6405V20.7635C303.083 18.9282 313.152 17.8693 323.476 17.8693C333.88 17.8693 344.027 18.9356 353.89 20.7984ZM279.561 24.0133C280.312 47.4595 299.658 66.3313 323.476 66.3313C347.399 66.3313 366.829 47.4881 367.613 24.0699C433.281 42.5163 481.93 100.92 484.988 170.931H161.964C165.026 100.843 213.781 42.3908 279.561 24.0133ZM278.634 215.003H368.547V231.336H278.634V215.003ZM368.547 201.133H278.634V184.8H368.547V201.133ZM114.057 561.218H95.8946C92.8972 547.578 80.6367 537.336 66.0138 537.336C51.6111 537.336 39.5199 547.429 36.4379 561.218H18.2164C21.0953 537.54 41.4335 519.132 66.0138 519.132C90.7211 519.132 111.161 537.54 114.057 561.218ZM72.796 268.706V505.646C70.566 505.406 68.3074 505.263 66.0138 505.263C63.8054 505.263 61.6267 505.388 59.4771 505.613V268.706C59.4771 243.859 77.762 223.204 101.708 219.078C101.51 220.923 101.398 222.793 101.398 224.689C101.398 227.227 101.642 229.703 101.992 232.146C85.3047 236.005 72.796 250.889 72.796 268.706ZM115.268 224.689C115.268 205.549 129.306 189.588 147.739 186.341V263.041C129.306 259.79 115.268 243.829 115.268 224.689ZM368.547 484.717V500.724V501.05H278.634V500.724V484.717H368.547ZM278.634 514.92H368.547V531.253H278.634V514.92ZM281.4 470.848C285.932 461.368 295.628 454.747 306.923 454.747H340.021C351.414 454.747 361.19 461.368 365.758 470.848H281.4ZM340.021 561.218H306.923C295.695 561.218 285.746 554.686 281.182 545.122H365.761C361.197 554.686 351.249 561.218 340.021 561.218ZM382.416 490.911V482.698C382.416 480.797 382.171 478.892 381.883 476.826C381.868 476.718 381.803 476.632 381.784 476.526C378.729 456.405 361.256 440.878 340.021 440.878H306.923C286.148 440.878 268.946 455.886 265.495 475.526C265.347 475.946 264.764 480.729 264.764 482.698V490.915C233.606 478.859 207.75 458.035 189.711 431.901C195.39 363.304 253.736 309.823 323.476 309.823C393.475 309.823 451.847 363.359 457.26 432.001C439.266 458.1 413.483 478.885 382.416 490.911ZM468.452 413.023C454.59 346.01 394.501 295.953 323.476 295.953C252.669 295.953 192.588 346.008 178.554 413.021C167.658 391.377 161.609 367.128 161.609 341.753V297.101H243.639V283.231H161.609V270.581V264.362H218.991V250.493H161.609V231.624H198.729V217.755H161.609V184.8H264.764V208.068V233.355C264.764 235.324 264.79 237.293 265.069 239.265C265.569 242.674 268.49 245.205 271.936 245.205H375.016C378.479 245.205 381.434 242.487 381.908 239.062C382.171 237.161 382.416 235.256 382.416 233.355V208.068V184.8H485.344V198.598H406.768V212.467H485.344V231.336H431.416V245.205H485.344V264.074H451.67V277.944H485.344V341.753C485.344 367.134 479.313 391.383 468.452 413.023ZM499.213 263.041V186.341C517.638 189.593 531.676 205.549 531.676 224.689C531.676 243.829 517.638 259.79 499.213 263.041ZM544.963 232.073C545.306 229.654 545.545 227.201 545.545 224.689C545.545 222.782 545.431 220.902 545.231 219.046C569.171 223.087 587.475 243.786 587.475 268.706V505.61C585.323 505.387 583.141 505.263 580.93 505.263C578.719 505.263 576.537 505.387 574.385 505.61V268.706C574.385 250.804 561.77 235.843 544.963 232.073ZM610.811 561.218C607.813 547.578 595.553 537.336 580.93 537.336C566.417 537.336 554.224 547.429 551.117 561.218H532.887C535.783 537.54 556.223 519.132 580.93 519.132C605.637 519.132 626.077 537.54 628.973 561.218H610.811Z" stroke="#0D2173" stroke-width="8" mask="url(#path-3-outside-1_327_355)"/>
</svg>
