<svg width="50" height="53" viewBox="0 0 50 53" fill="none" xmlns="http://www.w3.org/2000/svg">
<path d="M21.9678 52.8191C19.5553 52.3393 17.4724 50.6894 16.4597 48.456C16.0143 47.4735 15.8247 46.5453 15.828 45.3616C15.837 41.9599 17.9761 39.1194 21.2991 38.0953C21.9113 37.9067 22.3153 37.8569 23.2539 37.8544C23.9046 37.8529 24.6222 37.8871 24.8486 37.9309L25.2602 38.0107L25.7666 37.0272C26.8009 35.019 28.4128 33.4413 30.4965 32.3976C32.2155 31.5367 33.2957 31.2863 35.2911 31.2863C36.6887 31.2863 37.013 31.32 37.9147 31.5589C41.8085 32.5907 44.8435 35.6466 45.7987 39.4973C46.0379 40.4615 46.1573 42.6235 46.0181 43.4716L45.9231 44.0507L46.4684 44.1728C47.8352 44.4786 49.0147 45.4335 49.6177 46.7222C50.2141 47.9966 50.105 49.6457 49.3444 50.8504C48.9562 51.4653 48.1952 52.1488 47.5602 52.4528C47.2347 52.6086 46.888 52.7782 46.7897 52.8298C46.569 52.9456 22.5517 52.9353 21.9678 52.8191ZM46.9364 51.3976C47.6121 51.0616 48.2805 50.3104 48.5581 49.5746C49.1344 48.0482 48.3657 46.2746 46.8321 45.5923C46.4448 45.4199 46.1555 45.3801 45.348 45.3877C44.7962 45.393 44.3448 45.3581 44.3448 45.3104C44.3448 45.2626 44.4473 44.8148 44.5726 44.3152C44.893 43.0372 44.8898 40.9992 44.5651 39.7546C43.8497 37.0101 41.9948 34.7209 39.4577 33.4514C38.3428 32.8936 37.2824 32.6385 35.8334 32.5793C33.6893 32.4918 32.1924 32.8297 30.5429 33.7735C28.6194 34.874 26.9613 36.8683 26.3186 38.8543C26.195 39.2363 26.0451 39.5482 25.9855 39.5475C25.9256 39.5468 25.5762 39.4471 25.2084 39.326C24.1852 38.9892 22.44 39.0097 21.4188 39.3705C20.3908 39.7337 19.6507 40.1992 18.8802 40.9673C17.7253 42.1187 17.0837 43.6879 17.0837 45.3616C17.0837 47.8472 18.4529 50.0262 20.6804 51.0857C21.9606 51.6946 21.5176 51.6763 34.5193 51.6561L46.4537 51.6375L46.9364 51.3976ZM12.5027 46.5869C8.18509 46.0018 4.86179 44.9177 2.40357 43.2924C1.38928 42.6217 0.688991 41.8717 0.294147 41.033L0 40.4081L0.0269484 23.4915L0.0539025 6.57494L0.299539 6.11404C0.920478 4.94898 2.13113 3.95484 4.05863 3.02739C6.49582 1.85465 9.30636 1.12148 13.2228 0.636722C14.8357 0.437099 20.3126 0.472396 21.9678 0.693086C28.0631 1.50573 32.793 3.49721 34.3008 5.88563C34.895 6.82683 34.8796 6.48567 34.8796 18.7835V30.0743L34.5453 30.1261C34.3614 30.1545 33.9448 30.2063 33.6195 30.241C30.2629 30.5994 26.782 32.9198 24.9977 35.9885L24.6324 36.6167L23.1973 36.6844C21.5016 36.7645 20.6376 36.9817 19.3484 37.652C17.1348 38.8029 15.5527 40.7981 14.9076 43.2526C14.7294 43.9305 14.6767 44.4219 14.6731 45.4388L14.6656 46.7506L14.0971 46.7384C13.7845 46.7317 13.0657 46.6636 12.4998 46.5869H12.5027ZM21.2799 30.9945C20.47 30.3072 19.7696 29.7115 19.7234 29.6708C19.6769 29.63 19.8455 29.476 20.0972 29.3284C20.6556 29.0012 21.3745 28.218 21.6798 27.6044C22.4259 26.105 22.4093 24.2399 21.6364 22.7558C20.7867 21.1236 19.0084 20.2674 16.9937 20.5203C15.8905 20.6589 15.1994 20.9683 14.4706 21.6501C13.3202 22.7262 12.9218 23.7821 12.9823 25.5943C13.0167 26.6246 13.0534 26.8099 13.3481 27.4352C13.9823 28.7812 15.3082 29.7873 16.659 29.9472C17.1672 30.0074 17.2113 30.0407 18.2211 31.1266L19.2603 32.2442H21.0063H22.7523L21.2799 30.9945ZM16.874 27.4858C16.1665 27.1268 15.8978 26.5118 15.8978 25.2509C15.8978 24.4304 15.9375 24.1909 16.1392 23.7806C16.4618 23.1255 17.1049 22.7317 17.7359 22.8028C18.3565 22.8727 18.6791 23.1238 19.0074 23.7921C19.2565 24.2995 19.2925 24.4917 19.2896 25.2996C19.2896 26.2961 19.1097 26.807 18.6085 27.2732C18.0848 27.7602 17.5454 27.8264 16.874 27.4858ZM9.75481 29.8738C11.6152 29.4447 12.6258 27.8866 12.09 26.2736C11.8203 25.4614 11.2501 24.9541 9.8576 24.2872C9.2145 23.9792 8.63938 23.6643 8.57957 23.5875C8.34539 23.2866 8.34591 23.0875 8.57957 22.8137C8.94192 22.3924 9.76679 22.3723 10.8836 22.7574L11.7356 23.0512L11.7064 21.9142L11.6772 20.7771L11.1114 20.6426C10.2557 20.4392 8.40602 20.4492 7.67833 20.6611C6.21919 21.0861 5.45032 22.0398 5.45511 23.4186C5.4626 24.8376 6.09933 25.5103 8.35063 26.4655C9.30307 26.8697 9.41215 27.6249 8.56077 27.9206C8.16675 28.0575 8.0546 28.0548 7.43112 27.8938C7.05035 27.7955 6.47269 27.577 6.14732 27.4083L5.55573 27.1016V28.3325V29.5634L6.14732 29.7281C6.47269 29.8187 6.78517 29.9089 6.84177 29.9286C7.07693 30.0105 9.34492 29.9679 9.75249 29.8738H9.75481ZM29.6326 28.7975V27.7173H27.9865H26.3404V24.1678V20.6184H25.0029H23.6654V25.2481V29.8778H26.6491H29.6326V28.7975ZM21.7107 10.2746C24.3935 9.96366 26.595 9.40129 27.9865 8.67147C28.9007 8.192 29.1199 8.01928 29.4713 7.50144C30.558 5.9001 28.1247 4.29 23.4082 3.48955C18.9771 2.73752 13.1376 2.90763 9.40017 3.89762C1.6886 5.94034 4.72861 9.69268 14.6945 10.4324C16.3301 10.5539 20.0167 10.4709 21.7107 10.2746Z" fill="#00BCF2"/>
</svg>
