<svg width="59" height="38" viewBox="0 0 59 38" fill="none" xmlns="http://www.w3.org/2000/svg">
<path fill-rule="evenodd" clip-rule="evenodd" d="M52.9575 0H5.61264C2.61642 0 0.19092 2.62755 0.214526 5.81633V25.2041C0.214526 28.4183 2.6402 31.0204 5.63642 31.0204H28.0604L38.3094 37.1429L35.979 31.0204H52.9575C55.9538 31.0204 58.3792 28.4183 58.3792 25.2041V5.81633C58.3792 2.60203 55.9538 0 52.9575 0ZM4.61401 4.48979C3.94818 4.54082 3.4488 4.79592 3.11589 5.28061C2.78298 5.73979 2.66409 6.32652 2.73542 6.98979C4.13841 16.5562 5.44628 23.0102 6.65903 26.3521C7.13463 27.5765 7.68155 28.1634 8.3236 28.1123C9.32233 28.0357 10.5113 26.5562 11.9143 23.6735C12.6515 22.0408 13.7929 19.5919 15.3385 16.3265C16.6226 21.1479 18.3822 24.7705 20.5938 27.1939C21.2121 27.8827 21.8541 28.1888 22.4723 28.1378C23.0194 28.0868 23.4473 27.7806 23.7326 27.2193C23.9705 26.7347 24.0656 26.1734 24.018 25.5357C23.8753 23.2143 24.0894 19.9745 24.6839 15.8163C25.3021 11.5306 26.0631 8.44388 26.9905 6.60714C27.1807 6.22449 27.252 5.84183 27.2283 5.38265C27.1807 4.79591 26.9429 4.31122 26.4911 3.92857C26.0394 3.54592 25.5399 3.36735 24.993 3.41836C24.3034 3.46938 23.7802 3.82652 23.4236 4.54082C21.9493 7.42347 20.9029 12.0918 20.2847 18.5714C19.381 16.1225 18.62 13.2398 18.0256 9.84693C17.7641 8.34184 17.122 7.62755 16.0757 7.70409C15.3623 7.7551 14.7678 8.26531 14.2922 9.23469L9.08454 19.8725C8.22848 16.1735 7.41997 11.6582 6.68281 6.32652C6.51636 5 5.82675 4.38774 4.61401 4.48979ZM50.437 6.32661C52.1254 6.70927 53.3857 7.67866 54.2417 9.2858C55.0027 10.6634 55.3831 12.3215 55.3831 14.3113C55.3831 16.9388 54.7649 19.3368 53.5283 21.5307C52.1015 24.0817 50.2467 25.3572 47.9402 25.3572C47.536 25.3572 47.1079 25.3062 46.656 25.2041C44.9678 24.8215 43.7074 23.8522 42.8513 22.245C42.0904 20.8419 41.7099 19.1583 41.7099 17.1939C41.7099 14.5664 42.3283 12.1684 43.5647 10.0001C45.0153 7.44906 46.8701 6.17355 49.153 6.17355C49.5572 6.17355 49.9852 6.22457 50.437 6.32661ZM49.4383 20.1276C50.3182 19.2858 50.9126 18.0358 51.2456 16.3521C51.3407 15.7654 51.412 15.1276 51.412 14.4644C51.412 13.7246 51.2693 12.9338 50.9839 12.1429C50.6273 11.148 50.1516 10.6123 49.5809 10.4848C48.7249 10.3062 47.8926 10.8164 47.1079 12.0664C46.4659 13.0358 46.0615 14.0562 45.8476 15.1021C45.7286 15.6889 45.681 16.3267 45.681 16.9644C45.681 17.7042 45.8237 18.495 46.1091 19.2858C46.4659 20.2807 46.9414 20.8163 47.5121 20.944C48.1066 21.0715 48.7486 20.7909 49.4383 20.1276ZM39.332 9.2858C38.4758 7.67866 37.1918 6.70927 35.5273 6.32661C35.0753 6.22457 34.6474 6.17355 34.2431 6.17355C31.9604 6.17355 30.1056 7.44906 28.655 10.0001C27.4184 12.1684 26.8002 14.5664 26.8002 17.1939C26.8002 19.1583 27.1807 20.8419 27.9416 22.245C28.7977 23.8522 30.058 24.8215 31.7463 25.2041C32.198 25.3062 32.6261 25.3572 33.0304 25.3572C35.337 25.3572 37.1918 24.0817 38.6185 21.5307C39.8552 19.3368 40.4733 16.9388 40.4733 14.3113C40.4733 12.3215 40.0928 10.6634 39.332 9.2858ZM36.3357 16.3521C36.0029 18.0358 35.4083 19.2858 34.5284 20.1276C33.8389 20.7909 33.1968 21.0715 32.6024 20.944C32.0316 20.8163 31.556 20.2807 31.1994 19.2858C30.914 18.495 30.7713 17.7042 30.7713 16.9644C30.7713 16.3267 30.8189 15.6889 30.9378 15.1021C31.1518 14.0562 31.556 13.0358 32.198 12.0664C32.9829 10.8164 33.8152 10.3062 34.6711 10.4848C35.2419 10.6123 35.7175 11.148 36.0742 12.1429C36.3595 12.9338 36.5022 13.7246 36.5022 14.4644C36.5022 15.1276 36.4547 15.7654 36.3357 16.3521Z" fill="#7F54B3"/>
</svg>
