<svg width="50" height="35" viewBox="0 0 50 35" fill="none" xmlns="http://www.w3.org/2000/svg">
<path d="M12.0209 31.4834H10.0916C10.0233 28.2269 9.83545 25.1654 9.52825 22.2967H9.5111L6.57374 31.4834H5.10487L2.18503 22.2967H2.16826C1.95165 25.051 1.81521 28.1132 1.75854 31.4834H0C0.113334 27.3851 0.39816 23.543 0.85336 19.9566H3.24456L6.02758 28.4264H6.04472L8.84489 19.9566H11.1328C11.6339 24.1574 11.9299 27.9999 12.0209 31.4834ZM20.3878 22.9789C19.6023 27.2416 18.5659 30.3389 17.2797 32.2723C16.2776 33.7605 15.1797 34.5054 13.9841 34.5054C13.6653 34.5054 13.272 34.4092 12.806 34.2184V33.1905C13.0338 33.2233 13.3011 33.242 13.6083 33.242C14.1667 33.242 14.6156 33.0884 14.9578 32.7804C15.3672 32.4054 15.5719 31.9837 15.5719 31.5174C15.5719 31.1975 15.4123 30.5436 15.0939 29.5534L12.9767 22.9785H14.8721L16.3917 27.8959C16.7332 29.0125 16.8756 29.792 16.8185 30.236C17.6495 28.0167 18.23 25.5968 18.5607 22.9782H20.3878V22.9789Z" fill="#5D87A1"/>
<path d="M46.0687 31.4834H40.5884V19.9565H42.4319V30.0645H46.0687V31.4834ZM39.1538 31.7619L37.0348 30.7162C37.2227 30.5618 37.4024 30.3948 37.5642 30.2013C38.4649 29.1433 38.9141 27.5786 38.9141 25.5062C38.9141 21.6927 37.4176 19.785 34.4236 19.785C32.9555 19.785 31.8102 20.269 30.9912 21.2371C30.0912 22.2959 29.642 23.855 29.642 25.9163C29.642 27.9425 30.0401 29.4289 30.8368 30.3717C31.5657 31.2258 32.6643 31.6534 34.1336 31.6534C34.6816 31.6534 35.1845 31.5863 35.6427 31.451L38.4015 33.057L39.1538 31.7619ZM32.2893 29.1769C31.8225 28.426 31.5891 27.2204 31.5891 25.558C31.5891 22.6557 32.4708 21.2028 34.2361 21.2028C35.1588 21.2028 35.8351 21.5503 36.2675 22.2437C36.7335 22.9957 36.968 24.1905 36.968 25.8298C36.968 28.756 36.0856 30.2192 34.3215 30.2192C33.3984 30.2196 32.7221 29.8733 32.2893 29.1769ZM28.8386 28.2884C28.8386 29.266 28.4799 30.0679 27.7634 30.696C27.0461 31.3216 26.0843 31.6352 24.879 31.6352C23.7516 31.6352 22.6585 31.275 21.6005 30.5585L22.0959 29.5687C23.0063 30.0246 23.8306 30.2513 24.5706 30.2513C25.2652 30.2513 25.808 30.0973 26.2017 29.792C26.595 29.4855 26.8295 29.0557 26.8295 28.5121C26.8295 27.8273 26.3519 27.242 25.4758 26.7517C24.668 26.3081 23.0522 25.3805 23.0522 25.3805C22.1765 24.7423 21.738 24.0571 21.738 22.9282C21.738 21.9939 22.065 21.2397 22.7193 20.666C23.3743 20.09 24.2195 19.8029 25.2555 19.8029C26.3255 19.8029 27.2981 20.0896 28.1742 20.657L27.7298 21.6472C26.9805 21.3288 26.2408 21.1697 25.5112 21.1697C24.9203 21.1697 24.464 21.3117 24.1468 21.5969C23.8269 21.881 23.6297 22.2445 23.6297 22.6903C23.6297 23.3718 24.1173 23.9646 25.0173 24.4645C25.836 24.9089 27.492 25.8525 27.492 25.8525C28.3901 26.4896 28.8386 27.1685 28.8386 28.2884Z" fill="#F8981D"/>
<path d="M48.3831 16.0958C47.2684 16.0674 46.4054 16.1796 45.681 16.4861C45.4719 16.5696 45.1393 16.5696 45.1102 16.8339C45.2232 16.9458 45.2363 17.1262 45.3343 17.2805C45.5013 17.559 45.7925 17.9337 46.0583 18.1291C46.3502 18.3527 46.6432 18.5742 46.9504 18.7692C47.4921 19.1043 48.1061 19.2993 48.634 19.6333C48.9416 19.8276 49.2473 20.0789 49.5552 20.288C49.7066 20.3995 49.8035 20.5803 50 20.65V20.6075C49.9016 20.4822 49.8736 20.301 49.7771 20.1616L49.3588 19.7582C48.9547 19.2154 48.4525 18.7416 47.9108 18.3524C47.4649 18.0452 46.4896 17.6276 46.3088 17.1139L46.2805 17.0856C46.5869 17.0569 46.9504 16.9458 47.2416 16.8604C47.7154 16.7355 48.1475 16.7638 48.6337 16.6389C48.8573 16.583 49.0792 16.5129 49.3036 16.444V16.3183C49.0516 16.0674 48.8719 15.7341 48.6068 15.497C47.8977 14.8845 47.1163 14.2854 46.3088 13.784C45.8764 13.5047 45.3201 13.325 44.8597 13.0876C44.6938 13.0037 44.4142 12.9623 44.3165 12.8229C44.0668 12.5164 43.9262 12.113 43.745 11.7503C43.3424 10.9849 42.9513 10.1357 42.6039 9.3263C42.3526 8.78349 42.1997 8.24142 41.8933 7.73925C40.458 5.37191 38.8992 3.93809 36.5036 2.53074C35.9887 2.23771 35.3762 2.11282 34.7219 1.95922L33.6769 1.90404C33.454 1.80637 33.2307 1.5413 33.0361 1.41604C32.2413 0.914982 30.1949 -0.17101 29.6103 1.26281C29.2338 2.16911 30.1673 3.06012 30.4879 3.5198C30.7247 3.83892 31.0315 4.20204 31.197 4.56441C31.2951 4.80114 31.3227 5.05242 31.4207 5.30257C31.6436 5.91547 31.852 6.59734 32.1451 7.16922C32.2979 7.46076 32.4646 7.76721 32.6599 8.03116C32.7718 8.1855 32.9664 8.25373 33.0089 8.50537C32.8146 8.78274 32.7993 9.20141 32.6879 9.54961C32.1868 11.1232 32.3825 13.0727 33.0927 14.2291C33.3149 14.5773 33.8451 15.3438 34.5542 15.05C35.182 14.7995 35.0429 14.0058 35.2234 13.3098C35.2647 13.1416 35.2375 13.0313 35.321 12.9209V12.9481C35.5153 13.3377 35.7114 13.7131 35.8914 14.1038C36.3235 14.7857 37.0758 15.4963 37.7025 15.9686C38.0362 16.2207 38.3005 16.6516 38.7184 16.8056V16.7638H38.6909C38.6062 16.6389 38.4824 16.583 38.3714 16.4861C38.1201 16.2352 37.842 15.9287 37.647 15.6506C37.0632 14.8703 36.5465 14.0065 36.0879 13.1152C35.8635 12.6827 35.67 12.21 35.4892 11.7783C35.4049 11.6116 35.4049 11.3603 35.2651 11.2765C35.0556 11.5825 34.7503 11.8476 34.5974 12.2226C34.3323 12.8225 34.3048 13.5603 34.2063 14.3275L34.1515 14.3544C33.7079 14.2429 33.5535 13.784 33.385 13.3944C32.9679 12.405 32.8978 10.8168 33.2598 9.67525C33.3567 9.38334 33.7761 8.46399 33.6087 8.18587C33.5248 7.91932 33.246 7.76758 33.0931 7.55769C32.9134 7.29374 32.7166 6.95971 32.5913 6.66668C32.2573 5.88713 32.0891 5.02334 31.7294 4.24417C31.5613 3.88105 31.2693 3.50526 31.033 3.17085C30.7675 2.79506 30.4756 2.53036 30.2657 2.08486C30.1964 1.93163 30.0991 1.6811 30.2106 1.51446C30.2378 1.40262 30.2944 1.36086 30.4055 1.3329C30.586 1.18042 31.1016 1.37428 31.2824 1.45816C31.7987 1.66694 32.2304 1.86192 32.6614 2.1542C32.8564 2.294 33.0655 2.5587 33.3157 2.62841H33.6087C34.0535 2.72534 34.5549 2.65525 34.9736 2.78126C35.7114 3.01837 36.3798 3.3662 36.9793 3.74162C38.8034 4.89844 40.3077 6.54216 41.3233 8.50537C41.4899 8.82524 41.5607 9.11827 41.7128 9.45193C42.0062 10.1349 42.369 10.8313 42.6601 11.4998C42.9528 12.1541 43.2317 12.8221 43.6496 13.3657C43.858 13.658 44.6953 13.8112 45.0707 13.9644C45.3485 14.0893 45.7809 14.2004 46.0315 14.3536C46.5053 14.6455 46.9773 14.9807 47.4228 15.3017C47.6446 15.4687 48.3418 15.8169 48.3831 16.0958ZM34.1769 3.99289C33.9846 3.99089 33.7929 4.01446 33.6069 4.06298V4.09094H33.6337C33.7459 4.31351 33.9409 4.46785 34.0799 4.66208C34.1922 4.8854 34.2895 5.10685 34.3994 5.32979L34.4263 5.3022C34.6228 5.16314 34.7204 4.9402 34.7204 4.60579C34.6358 4.50737 34.6228 4.41118 34.5523 4.31351C34.4703 4.17408 34.2895 4.10474 34.1769 3.99289Z" fill="#5D87A1"/>
<path d="M49.7095 31.4816H49.9981V30.0694H49.5652L49.2122 31.0331L48.8286 30.0694H48.4118V31.4816H48.6843V30.4071H48.6996L49.1015 31.4816H49.3091L49.7095 30.4071V31.4816ZM47.3851 31.4816H47.6904V30.3087H48.09V30.069H46.9686V30.3087H47.3843L47.3851 31.4816Z" fill="#F8981D"/>
</svg>
