<svg width="50" height="51" viewBox="0 0 50 51" fill="none" xmlns="http://www.w3.org/2000/svg">
<path fill-rule="evenodd" clip-rule="evenodd" d="M47.8232 5.12279H29.7339V0.860291L0 5.44958V45.6764L29.7339 50.7978V44.4799H47.8232C48.3711 44.5077 48.9076 44.3174 49.3155 43.9506C49.7235 43.5839 49.9695 43.0705 50 42.5228V7.07815C49.9691 6.53076 49.7228 6.01785 49.3149 5.65147C48.9071 5.28509 48.3708 5.09503 47.8232 5.12279ZM48.1089 42.8478H29.6732L29.6429 39.4746H34.0839V35.546H29.6089L29.5875 33.2246H34.0839V29.296H29.5536L29.5321 26.9746H34.0839V23.046H29.5179V20.7246H34.0839V16.796H29.5179V14.4746H34.0839V10.546H29.5179V6.97458H48.1089V42.8478Z" fill="#20744A"/>
<path d="M44.3036 10.5406H36.5839V14.4692H44.3036V10.5406Z" fill="#20744A"/>
<path d="M44.3036 16.7924H36.5839V20.721H44.3036V16.7924Z" fill="#20744A"/>
<path d="M44.3036 23.0442H36.5839V26.9728H44.3036V23.0442Z" fill="#20744A"/>
<path d="M44.3036 29.296H36.5839V33.2245H44.3036V29.296Z" fill="#20744A"/>
<path d="M44.3036 35.5478H36.5839V39.4764H44.3036V35.5478Z" fill="#20744A"/>
<path fill-rule="evenodd" clip-rule="evenodd" d="M7.76252 16.3156L11.5947 16.096L14.0036 22.7192L16.85 15.8228L20.6822 15.6031L16.0286 25.0067L20.6822 34.4335L16.6304 34.1603L13.8947 26.9746L11.1572 33.8871L7.43394 33.5585L11.7589 25.2317L7.76252 16.3156Z" fill="white"/>
</svg>
